<svg id="visual" viewBox="0 0 960 300" width="960" height="300" xmlns="http://www.w3.org/2000/svg" xmlns:xlink="http://www.w3.org/1999/xlink" version="1.1"><rect x="0" y="0" width="960" height="300" fill="#001220"></rect><path d="M0 176L14.5 173.7C29 171.3 58 166.7 87.2 166C116.3 165.3 145.7 168.7 174.8 168.2C204 167.7 233 163.3 262 167.8C291 172.3 320 185.7 349 188.3C378 191 407 183 436.2 177C465.3 171 494.7 167 523.8 169.2C553 171.3 582 179.7 611 182.2C640 184.7 669 181.3 698 181.7C727 182 756 186 785.2 181.8C814.3 177.7 843.7 165.3 872.8 165.7C902 166 931 179 945.5 185.5L960 192L960 301L945.5 301C931 301 902 301 872.8 301C843.7 301 814.3 301 785.2 301C756 301 727 301 698 301C669 301 640 301 611 301C582 301 553 301 523.8 301C494.7 301 465.3 301 436.2 301C407 301 378 301 349 301C320 301 291 301 262 301C233 301 204 301 174.8 301C145.7 301 116.3 301 87.2 301C58 301 29 301 14.5 301L0 301Z" fill="#fa7268"></path><path d="M0 184L14.5 184.5C29 185 58 186 87.2 185.8C116.3 185.7 145.7 184.3 174.8 187C204 189.7 233 196.3 262 197.5C291 198.7 320 194.3 349 189.5C378 184.7 407 179.3 436.2 178.2C465.3 177 494.7 180 523.8 180.8C553 181.7 582 180.3 611 186.2C640 192 669 205 698 205.2C727 205.3 756 192.7 785.2 186.2C814.3 179.7 843.7 179.3 872.8 180C902 180.7 931 182.3 945.5 183.2L960 184L960 301L945.5 301C931 301 902 301 872.8 301C843.7 301 814.3 301 785.2 301C756 301 727 301 698 301C669 301 640 301 611 301C582 301 553 301 523.8 301C494.7 301 465.3 301 436.2 301C407 301 378 301 349 301C320 301 291 301 262 301C233 301 204 301 174.8 301C145.7 301 116.3 301 87.2 301C58 301 29 301 14.5 301L0 301Z" fill="#f16367"></path><path d="M0 230L14.5 229.8C29 229.7 58 229.3 87.2 226.5C116.3 223.7 145.7 218.3 174.8 214.7C204 211 233 209 262 208.5C291 208 320 209 349 208.7C378 208.3 407 206.7 436.2 208.3C465.3 210 494.7 215 523.8 214.3C553 213.7 582 207.3 611 206.5C640 205.7 669 210.3 698 214.2C727 218 756 221 785.2 219C814.3 217 843.7 210 872.8 208.5C902 207 931 211 945.5 213L960 215L960 301L945.5 301C931 301 902 301 872.8 301C843.7 301 814.3 301 785.2 301C756 301 727 301 698 301C669 301 640 301 611 301C582 301 553 301 523.8 301C494.7 301 465.3 301 436.2 301C407 301 378 301 349 301C320 301 291 301 262 301C233 301 204 301 174.8 301C145.7 301 116.3 301 87.2 301C58 301 29 301 14.5 301L0 301Z" fill="#e85467"></path><path d="M0 218L14.5 221.8C29 225.7 58 233.3 87.2 239.2C116.3 245 145.7 249 174.8 245.8C204 242.7 233 232.3 262 227.2C291 222 320 222 349 225.2C378 228.3 407 234.7 436.2 234.5C465.3 234.3 494.7 227.7 523.8 224.8C553 222 582 223 611 223.7C640 224.3 669 224.7 698 223.3C727 222 756 219 785.2 218.7C814.3 218.3 843.7 220.7 872.8 221.3C902 222 931 221 945.5 220.5L960 220L960 301L945.5 301C931 301 902 301 872.8 301C843.7 301 814.3 301 785.2 301C756 301 727 301 698 301C669 301 640 301 611 301C582 301 553 301 523.8 301C494.7 301 465.3 301 436.2 301C407 301 378 301 349 301C320 301 291 301 262 301C233 301 204 301 174.8 301C145.7 301 116.3 301 87.2 301C58 301 29 301 14.5 301L0 301Z" fill="#de4467"></path><path d="M0 246L14.5 246.3C29 246.7 58 247.3 87.2 247.5C116.3 247.7 145.7 247.3 174.8 248.5C204 249.7 233 252.3 262 256.2C291 260 320 265 349 265.7C378 266.3 407 262.7 436.2 259C465.3 255.3 494.7 251.7 523.8 248.3C553 245 582 242 611 241C640 240 669 241 698 244C727 247 756 252 785.2 255C814.3 258 843.7 259 872.8 256.8C902 254.7 931 249.3 945.5 246.7L960 244L960 301L945.5 301C931 301 902 301 872.8 301C843.7 301 814.3 301 785.2 301C756 301 727 301 698 301C669 301 640 301 611 301C582 301 553 301 523.8 301C494.7 301 465.3 301 436.2 301C407 301 378 301 349 301C320 301 291 301 262 301C233 301 204 301 174.8 301C145.7 301 116.3 301 87.2 301C58 301 29 301 14.5 301L0 301Z" fill="#d23467"></path><path d="M0 274L14.5 273.5C29 273 58 272 87.2 269.8C116.3 267.7 145.7 264.3 174.8 263.5C204 262.7 233 264.3 262 267.2C291 270 320 274 349 274C378 274 407 270 436.2 269.2C465.3 268.3 494.7 270.7 523.8 272.7C553 274.7 582 276.3 611 275.5C640 274.7 669 271.3 698 272.7C727 274 756 280 785.2 281C814.3 282 843.7 278 872.8 276.5C902 275 931 276 945.5 276.5L960 277L960 301L945.5 301C931 301 902 301 872.8 301C843.7 301 814.3 301 785.2 301C756 301 727 301 698 301C669 301 640 301 611 301C582 301 553 301 523.8 301C494.7 301 465.3 301 436.2 301C407 301 378 301 349 301C320 301 291 301 262 301C233 301 204 301 174.8 301C145.7 301 116.3 301 87.2 301C58 301 29 301 14.5 301L0 301Z" fill="#c62368"></path></svg>